<?xml version="1.0" encoding="iso-8859-1"?>
<!-- Generator: Adobe Illustrator 19.0.0, SVG Export Plug-In . SVG Version: 6.00 Build 0)  -->
<svg version="1.1" id="Layer_1" xmlns="http://www.w3.org/2000/svg" xmlns:xlink="http://www.w3.org/1999/xlink" x="0px" y="0px"
	 viewBox="0 0 512 512" style="enable-background:new 0 0 512 512;" xml:space="preserve">
<g>
	<rect x="234.151" y="125.95" style="fill:#2BA5F7;" width="56.331" height="28.166"/>
	<rect x="331.074" y="125.95" style="fill:#2BA5F7;" width="56.331" height="28.166"/>
	<polygon style="fill:#2BA5F7;" points="406.097,154.116 406.097,270.081 308.146,270.081 215.465,270.081 215.465,154.116 
		234.153,154.116 290.485,154.116 331.077,154.116 387.408,154.116 	"/>
</g>
<g>
	<rect x="425.778" y="241.915" style="fill:#F7B239;" width="56.331" height="28.166"/>
	<polygon style="fill:#F7B239;" points="498.79,270.081 498.79,386.058 308.146,386.058 308.146,270.081 406.097,270.081 
		425.78,270.081 482.111,270.081 	"/>
</g>
<rect x="33.136" y="241.915" style="fill:#F95428;" width="56.32" height="28.166"/>
<rect x="33.136" y="241.915" style="fill:#D33924;" width="29.811" height="28.166"/>
<g>
	<rect x="130.048" y="241.915" style="fill:#F95428;" width="56.331" height="28.166"/>
	<polygon style="fill:#F95428;" points="308.146,270.081 308.146,386.058 8.286,386.058 8.286,270.081 33.138,270.081 
		89.459,270.081 130.051,270.081 186.382,270.081 215.465,270.081 	"/>
</g>
<rect x="132.545" y="241.915" style="fill:#D33924;" width="29.812" height="28.166"/>
<rect x="427.456" y="241.915" style="fill:#E09B2D;" width="29.811" height="28.166"/>
<g>
	<rect x="236.371" y="125.939" style="fill:#2197D8;" width="29.812" height="28.166"/>
	<rect x="331.362" y="125.939" style="fill:#2197D8;" width="29.811" height="28.166"/>
</g>
<g>
	<path style="fill:#FFFFFF;" d="M377.799,254.64c-4.576,0-8.284-3.709-8.284-8.284v-45.102c0-4.575,3.708-8.284,8.284-8.284
		c4.576,0,8.284,3.709,8.284,8.284v45.102C386.083,250.931,382.375,254.64,377.799,254.64z"/>
	<path style="fill:#FFFFFF;" d="M465.057,370.744c-4.576,0-8.284-3.709-8.284-8.284v-45.102c0-4.575,3.708-8.284,8.284-8.284
		s8.284,3.709,8.284,8.284v45.102C473.341,367.035,469.633,370.744,465.057,370.744z"/>
	<path style="fill:#FFFFFF;" d="M281.704,370.744c-4.576,0-8.284-3.709-8.284-8.284v-45.102c0-4.575,3.708-8.284,8.284-8.284
		c4.576,0,8.284,3.709,8.284,8.284v45.102C289.988,367.035,286.28,370.744,281.704,370.744z"/>
	<circle style="fill:#FFFFFF;" cx="377.796" cy="177.576" r="8.284"/>
	<circle style="fill:#FFFFFF;" cx="281.702" cy="293.685" r="8.284"/>
	<circle style="fill:#FFFFFF;" cx="465.055" cy="293.674" r="8.284"/>
</g>
<path style="fill:#333333;" d="M503.716,261.798h-13.324v-19.881c0-4.575-3.708-8.284-8.284-8.284h-56.329
	c-4.576,0-8.284,3.709-8.284,8.284v19.881h-6.977V154.111c0-4.575-3.708-8.284-8.284-8.284h-10.409v-19.881
	c0-4.575-3.708-8.284-8.284-8.284h-56.329c-4.576,0-8.284,3.709-8.284,8.284v19.881h-24.021v-19.881
	c0-4.575-3.708-8.284-8.284-8.284h-56.328c-4.575,0-8.284,3.709-8.284,8.284v19.881H211.6c-4.575,0-8.284,3.709-8.284,8.284v107.687
	h-8.649v-19.881c0-4.575-3.709-8.284-8.284-8.284h-56.329c-4.575,0-8.284,3.709-8.284,8.284v19.881H97.748v-19.881
	c0-4.575-3.709-8.284-8.284-8.284H33.135c-4.575,0-8.284,3.709-8.284,8.284v19.881H8.284c-4.575,0-8.284,3.709-8.284,8.284v115.971
	c0,4.575,3.709,8.284,8.284,8.284h495.432c4.576,0,8.284-3.709,8.284-8.284V270.082C512,265.507,508.292,261.798,503.716,261.798z
	 M434.063,250.202h39.761v11.597h-39.761L434.063,250.202L434.063,250.202z M335.495,134.231h39.761v11.597h-39.761V134.231z
	 M238.577,134.231h39.76v11.597h-39.76L238.577,134.231L238.577,134.231z M219.883,162.395h10.409h56.328h40.59h56.329h10.409
	v99.403H219.883V162.395z M138.338,250.202h39.761v11.597h-39.761C138.338,261.798,138.338,250.202,138.338,250.202z
	 M41.419,250.202H81.18v11.597H41.419V250.202z M16.568,278.366h283.3v99.403h-283.3V278.366z M495.432,377.768H316.436v-99.403
	h178.997v99.403H495.432z"/>
<g>
</g>
<g>
</g>
<g>
</g>
<g>
</g>
<g>
</g>
<g>
</g>
<g>
</g>
<g>
</g>
<g>
</g>
<g>
</g>
<g>
</g>
<g>
</g>
<g>
</g>
<g>
</g>
<g>
</g>
</svg>
