<svg id="Capa_1" data-name="Capa 1" xmlns="http://www.w3.org/2000/svg" viewBox="0 0 311.08 192"><defs><style>.cls-1{fill:none;}.cls-2{fill:#3a3a3a;}.cls-3{fill:#fff;opacity:0.18;}.cls-4{fill:#c33;}.cls-5{fill:#36c;}.cls-6{fill:#f93;}.cls-7{fill:#6c9;}</style></defs><title>calll_logo</title><circle class="cls-1" cx="168.84" cy="152.17" r="4.42"/><path class="cls-2" d="M197.32,40.49H171.74l-1.63,6.63h24.08c3.61,0,4.5.75,4.47,4.17l-.1,15.66a5.87,5.87,0,0,1,2.21-.41,5.62,5.62,0,0,1,3.11.86V47.06A6.59,6.59,0,0,0,197.32,40.49Z"/><path class="cls-2" d="M140.36,40.49a6.59,6.59,0,0,0-6.57,6.57V67a5.86,5.86,0,0,1,2.24-.42,5.73,5.73,0,0,1,2.8.69l.1-15.53c0-3.42,1.36-4.58,5-4.58h26.21l1.63-6.63Z"/><path class="cls-3" d="M140.36,40.49a6.59,6.59,0,0,0-6.57,6.57V67a5.86,5.86,0,0,1,2.24-.42,5.73,5.73,0,0,1,2.8.69l.1-15.53c0-3.42,1.36-4.58,5-4.58h26.21l1.63-6.63Z"/><path class="cls-2" d="M198.16,128.87l-.08,12.59c0,3.42-1.36,4.58-5,4.58H145.79l-3.39,13.82h54.92a6.59,6.59,0,0,0,6.57-6.57V128.65a5.58,5.58,0,0,1-3.11.88A5.36,5.36,0,0,1,198.16,128.87Zm-29.33,27.72a4.42,4.42,0,1,1,4.42-4.42A4.42,4.42,0,0,1,168.84,156.59Z"/><path class="cls-2" d="M144.87,146a6.37,6.37,0,0,1-6.53-6.22l.07-10.77a5.87,5.87,0,0,1-2.39.48,5.55,5.55,0,0,1-2.24-.44v24.21a6.59,6.59,0,0,0,6.57,6.57h2L145.79,146Z"/><path class="cls-3" d="M144.87,146a6.37,6.37,0,0,1-6.53-6.22l.07-10.77a5.87,5.87,0,0,1-2.39.48,5.55,5.55,0,0,1-2.24-.44v24.21a6.59,6.59,0,0,0,6.57,6.57h2L145.79,146Z"/><path class="cls-2" d="M69.3,111.06a7.32,7.32,0,0,1-.95,3.39,11.65,11.65,0,0,1-2.89,3.44,15,15,0,0,1-4.9,2.63,20.8,20.8,0,0,1-6.65,1q-7.87,0-12.28-4.59t-4.42-12.3a20.26,20.26,0,0,1,2-9.23,14.51,14.51,0,0,1,5.85-6.2A18.08,18.08,0,0,1,54.22,87a18.2,18.2,0,0,1,6,1,15.82,15.82,0,0,1,4.66,2.49,11.94,11.94,0,0,1,2.92,3.25,6.45,6.45,0,0,1,1,3.22,3.39,3.39,0,0,1-1.13,2.58A3.89,3.89,0,0,1,65,100.56a2.78,2.78,0,0,1-1.76-.54,8.64,8.64,0,0,1-1.57-1.76,12.87,12.87,0,0,0-3.25-3.54A8,8,0,0,0,48,96.47q-2.3,2.94-2.3,8a15.54,15.54,0,0,0,.59,4.4A10,10,0,0,0,48,112.32a7.31,7.31,0,0,0,2.71,2.14,8.21,8.21,0,0,0,3.48.73A7.84,7.84,0,0,0,58.59,114a10.35,10.35,0,0,0,3.22-3.61,8.31,8.31,0,0,1,1.68-2.24,3.19,3.19,0,0,1,2.21-.81,3.27,3.27,0,0,1,2.58,1.18A3.79,3.79,0,0,1,69.3,111.06Z"/><path class="cls-2" d="M98.16,116.79a26.32,26.32,0,0,1-6,3.59,16.64,16.64,0,0,1-6.45,1.2A12.23,12.23,0,0,1,80,120.28a9.45,9.45,0,0,1-3.81-3.5A9.08,9.08,0,0,1,74.87,112a8.57,8.57,0,0,1,2.21-5.94,11,11,0,0,1,6.06-3.3q.81-.19,4-.84t5.49-1.2q2.28-.54,5-1.32a8.85,8.85,0,0,0-1.35-4.93q-1.2-1.57-5-1.57a10.33,10.33,0,0,0-4.87.9,7.9,7.9,0,0,0-2.8,2.71q-1.17,1.8-1.65,2.38a2.7,2.7,0,0,1-2.07.57,3.62,3.62,0,0,1-2.47-.92,3,3,0,0,1-1-2.35A7.18,7.18,0,0,1,78,91.85a11.34,11.34,0,0,1,4.94-3.48A22.28,22.28,0,0,1,91.28,87a23.66,23.66,0,0,1,8.8,1.32,8.18,8.18,0,0,1,4.52,4.18,18.29,18.29,0,0,1,1.32,7.59q0,3,0,5.07t0,4.63a17.08,17.08,0,0,0,.79,5,15.73,15.73,0,0,1,.79,3.34,3.13,3.13,0,0,1-1.23,2.38,4.11,4.11,0,0,1-2.78,1.07,3.75,3.75,0,0,1-2.58-1.23A18.22,18.22,0,0,1,98.16,116.79Zm-.56-12.28a42.78,42.78,0,0,1-5.43,1.45q-3.56.76-4.93,1.12a6.71,6.71,0,0,0-2.61,1.4,3.58,3.58,0,0,0-1.24,2.91,4.3,4.3,0,0,0,1.46,3.28A5.4,5.4,0,0,0,88.67,116a10,10,0,0,0,4.65-1.1,7.37,7.37,0,0,0,3.12-2.84q1.15-1.93,1.15-6.34Z"/><path class="cls-2" d="M114.54,116.41V79.6a5.72,5.72,0,0,1,1.14-3.86,3.85,3.85,0,0,1,3.06-1.31,4,4,0,0,1,3.11,1.29A5.56,5.56,0,0,1,123,79.6v36.81a5.52,5.52,0,0,1-1.2,3.87,4,4,0,0,1-3.09,1.29,3.83,3.83,0,0,1-3-1.34A5.65,5.65,0,0,1,114.54,116.41Z"/><path class="cls-2" d="M131.8,116.41V79.6a5.72,5.72,0,0,1,1.14-3.86A3.85,3.85,0,0,1,136,74.44a4,4,0,0,1,3.11,1.29,5.56,5.56,0,0,1,1.18,3.87v36.81a5.52,5.52,0,0,1-1.2,3.87,4,4,0,0,1-3.09,1.29,3.83,3.83,0,0,1-3-1.34A5.65,5.65,0,0,1,131.8,116.41Z"/><path class="cls-2" d="M149.05,116.41V79.6a5.72,5.72,0,0,1,1.14-3.86,3.85,3.85,0,0,1,3.06-1.31,4,4,0,0,1,3.11,1.29,5.56,5.56,0,0,1,1.18,3.87v36.81a5.52,5.52,0,0,1-1.2,3.87,4,4,0,0,1-3.09,1.29,3.83,3.83,0,0,1-3-1.34A5.65,5.65,0,0,1,149.05,116.41Z"/><polygon class="cls-4" points="195.08 94.68 178.82 92.16 173.32 114.54 191.56 117.37 195.08 94.68"/><polygon class="cls-4" points="172.39 91.16 168.87 113.85 173.32 114.54 178.82 92.16 172.39 91.16"/><polygon class="cls-3" points="172.39 91.16 168.87 113.85 173.32 114.54 178.82 92.16 172.39 91.16"/><polygon class="cls-5" points="214.15 82.61 200.98 70.48 199.47 72.13 195.2 89.49 202.02 95.78 214.15 82.61"/><polygon class="cls-5" points="188.85 83.64 195.2 89.49 199.47 72.13 188.85 83.64"/><polygon class="cls-3" points="188.85 83.64 195.2 89.49 199.47 72.13 188.85 83.64"/><polygon class="cls-6" points="218.91 109.16 206.15 105.05 201.86 122.48 213.43 126.2 218.91 109.16"/><polygon class="cls-6" points="201.87 103.67 196.39 120.72 201.86 122.48 206.15 105.05 201.87 103.67"/><polygon class="cls-3" points="201.87 103.67 196.39 120.72 201.86 122.48 206.15 105.05 201.87 103.67"/><polygon class="cls-7" points="234.26 93.19 221.18 82.91 216.49 102 223.2 107.27 234.26 93.19"/><polygon class="cls-7" points="220.18 82.13 209.12 96.21 216.49 102 221.18 82.91 220.18 82.13"/><polygon class="cls-3" points="220.18 82.13 209.12 96.21 216.49 102 221.18 82.91 220.18 82.13"/><polygon class="cls-6" points="230.87 75.44 226.79 68.38 223.77 70.13 222.16 76.67 223.81 79.52 230.87 75.44"/><polygon class="cls-6" points="219.73 72.46 222.16 76.67 223.77 70.13 219.73 72.46"/><polygon class="cls-3" points="219.73 72.46 222.16 76.67 223.77 70.13 219.73 72.46"/><polygon class="cls-4" points="253.71 82.68 242.32 72.19 241.42 73.17 237.57 88.86 243.22 94.06 253.71 82.68"/><polygon class="cls-4" points="231.84 83.58 237.57 88.86 241.42 73.17 231.84 83.58"/><polygon class="cls-3" points="231.84 83.58 237.57 88.86 241.42 73.17 231.84 83.58"/><polygon class="cls-5" points="250.94 107.09 239.56 96.6 238.12 98.16 234.48 112.97 240.45 118.47 250.94 107.09"/><polygon class="cls-5" points="229.07 107.98 234.48 112.97 238.12 98.16 229.07 107.98"/><polygon class="cls-3" points="229.07 107.98 234.48 112.97 238.12 98.16 229.07 107.98"/><polygon class="cls-7" points="260.61 97.63 256.53 90.56 254.64 91.66 252.58 100.04 253.54 101.7 260.61 97.63"/><polygon class="cls-7" points="249.47 94.64 252.58 100.04 254.64 91.66 249.47 94.64"/><polygon class="cls-3" points="249.47 94.64 252.58 100.04 254.64 91.66 249.47 94.64"/><polygon class="cls-7" points="266.36 77.17 261.25 72.06 258.97 81.31 260.6 82.94 266.36 77.17"/><polygon class="cls-7" points="260.6 71.41 254.83 77.17 258.97 81.31 261.25 72.06 260.6 71.41"/><polygon class="cls-3" points="260.6 71.41 254.83 77.17 258.97 81.31 261.25 72.06 260.6 71.41"/><polygon class="cls-4" points="273.86 90.29 272.19 82.31 269.84 82.8 267.68 91.58 273.86 90.29"/><polygon class="cls-4" points="265.88 91.96 267.68 91.58 269.84 82.8 264.21 83.98 265.88 91.96"/><polygon class="cls-3" points="265.88 91.96 267.68 91.58 269.84 82.8 264.21 83.98 265.88 91.96"/></svg>